<svg xmlns="http://www.w3.org/2000/svg" width="40.947" height="40.787" viewBox="0 0 40.947 40.787">
  <g id="conference_1_" data-name="conference (1)" transform="translate(0 -1)">
    <g id="Group_43" data-name="Group 43" transform="translate(0 1)">
      <path id="Path_246" data-name="Path 246" d="M137.251,384.073v2.8a1.822,1.822,0,0,0,1.82,1.82h15.354a1.822,1.822,0,0,0,1.82-1.82v-2.8a1.821,1.821,0,0,0-1.82-1.818H139.071A1.821,1.821,0,0,0,137.251,384.073Zm17.394,0v2.8a.223.223,0,0,1-.22.22H139.071a.221.221,0,0,1-.22-.22v-2.8a.222.222,0,0,1,.22-.218h15.354A.222.222,0,0,1,154.645,384.073Z" transform="translate(-126.274 -351.764)" fill="#969696"/>
      <path id="Path_247" data-name="Path 247" d="M38.828,23.613h-.4V20.206a.371.371,0,0,0-.012-.13.8.8,0,0,0-.174-.376l-1.86-2.221a2.594,2.594,0,0,0-.21-3.037l-.745-.887a2.593,2.593,0,0,0-3.648-.323h0a2.592,2.592,0,0,0-.319,3.647l.744.889a2.571,2.571,0,0,0,1.757.915q.117.01.233.01a2.571,2.571,0,0,0,.963-.186l1.673,2v3.108H30.4c-.064-4.492-.74-6.723-3.972-8.273L25.14,14.027a4.938,4.938,0,0,0,1.609-3.367V7.277a6.277,6.277,0,1,0-12.554,0V10.66a4.938,4.938,0,0,0,1.61,3.367L14.522,15.34c-3.232,1.55-3.908,3.781-3.972,8.273H4.118V20.5l1.673-2a2.573,2.573,0,0,0,.963.186q.117,0,.236-.011a2.564,2.564,0,0,0,1.753-.914l.745-.888a2.589,2.589,0,0,0-3.968-3.328l-.747.89a2.6,2.6,0,0,0-.208,3.035L2.705,19.7a.8.8,0,0,0-.184.459c0,.012,0,.026,0,.041s0,.006,0,.01,0,0,0,0v3.4h-.4A2.121,2.121,0,0,0,0,25.732V27.11a2.122,2.122,0,0,0,2.119,2.119H3.1L6,40.6A1.359,1.359,0,0,0,7.34,41.787H33.607A1.365,1.365,0,0,0,34.944,40.6l2.9-11.369h.979a2.122,2.122,0,0,0,2.119-2.119V25.732A2.122,2.122,0,0,0,38.828,23.613Zm-4.007-6.749a.994.994,0,0,1-1.394-.122l-.745-.89a.987.987,0,0,1,.846-1.619.978.978,0,0,1,.67.349l.745.888A.991.991,0,0,1,34.821,16.864ZM6,15.47l.746-.889a.981.981,0,0,1,.672-.348q.045,0,.09,0a.99.99,0,0,1,.756,1.623l-.747.89a.994.994,0,0,1-1.392.122A.994.994,0,0,1,6,15.47ZM20.472,2.6A4.683,4.683,0,0,1,25.15,7.277v.6a14.512,14.512,0,0,1-4.1-1.1,9.042,9.042,0,0,0-3.12-.806,3.479,3.479,0,0,0-2.091.684A4.685,4.685,0,0,1,20.472,2.6ZM15.8,10.66V8.967c1.425-1.945,2.47-1.543,4.678-.7A15.8,15.8,0,0,0,25.15,9.481V10.66c0,1.965-3.042,4.043-4.677,4.043S15.8,12.625,15.8,10.66ZM24.8,15.969,22.6,18l-.933-1.878A7.9,7.9,0,0,0,23.9,15.049Zm-5.529.149L18.34,18l-2.2-2.026.9-.919A7.894,7.894,0,0,0,19.273,16.118Zm-4.416.841,3.182,2.935a.8.8,0,0,0,1.258-.232L20.472,17.3l1.175,2.363a.8.8,0,0,0,1.258.232l3.182-2.935c2.063,1.1,2.647,2.545,2.708,6.653H12.149c.061-4.108.645-5.557,2.708-6.653ZM39.348,27.11a.52.52,0,0,1-.52.52H24.061a.8.8,0,0,0,0,1.6H36.2L33.4,40.188H7.549l-2.8-10.958H16.877a.8.8,0,1,0,0-1.6H2.119a.527.527,0,0,1-.52-.52V25.732a.527.527,0,0,1,.52-.52H38.828a.527.527,0,0,1,.52.52Z" transform="translate(0 -1)" fill="#969696"/>
      <path id="Path_248" data-name="Path 248" d="M246.756,335.578h0a.8.8,0,1,0-.8-.8A.8.8,0,0,0,246.758,335.578Z" transform="translate(-226.286 -307.349)" fill="#969696"/>
    </g>
  </g>
</svg>
