<svg xmlns="http://www.w3.org/2000/svg" width="40.059" height="36.918" viewBox="0 0 40.059 36.918">
  <g id="contact_2_" data-name="contact (2)" transform="translate(-0.001 -0.5)">
    <path id="Path_208" data-name="Path 208" d="M217.96,17.088h1.826v1.487a.782.782,0,0,0,1.336.553l2.04-2.04H233.3a4,4,0,0,0,3.991-3.991V4.491A4,4,0,0,0,233.3.5H217.96a4,4,0,0,0-3.991,3.991V13.1A4,4,0,0,0,217.96,17.088Zm-2.426-12.6a2.428,2.428,0,0,1,2.426-2.426H233.3a2.428,2.428,0,0,1,2.425,2.426V13.1a2.428,2.428,0,0,1-2.425,2.426H222.837a.784.784,0,0,0-.553.229l-.933.933v-.38a.782.782,0,0,0-.782-.782H217.96a2.428,2.428,0,0,1-2.426-2.426Zm0,0" transform="translate(-197.227)" fill="#969696"/>
    <path id="Path_209" data-name="Path 209" d="M257.7,55.189h8.138a.783.783,0,0,0,.782-.783V53.168a3.094,3.094,0,0,0-2.413-3.013,2.726,2.726,0,0,0,.3-1.253v-.49a2.743,2.743,0,1,0-5.486,0v.49a2.726,2.726,0,0,0,.3,1.253,3.093,3.093,0,0,0-2.413,3.013v1.238A.783.783,0,0,0,257.7,55.189Zm2.891-6.778a1.178,1.178,0,0,1,2.356,0v.49a1.178,1.178,0,0,1-2.356,0Zm-2.108,4.757a1.526,1.526,0,0,1,1.524-1.524h3.524a1.526,1.526,0,0,1,1.524,1.524v.455h-6.573Zm0,0" transform="translate(-236.816 -41.634)" fill="#969696"/>
    <path id="Path_210" data-name="Path 210" d="M402.771,63.608h3.313a.782.782,0,0,0,0-1.565h-3.313a.782.782,0,0,0,0,1.565Zm0,0" transform="translate(-370.536 -56.728)" fill="#969696"/>
    <path id="Path_211" data-name="Path 211" d="M402.771,103.612h3.313a.782.782,0,0,0,0-1.565h-3.313a.782.782,0,0,0,0,1.565Zm0,0" transform="translate(-370.536 -93.602)" fill="#969696"/>
    <path id="Path_212" data-name="Path 212" d="M402.771,143.616h3.313a.782.782,0,0,0,0-1.565h-3.313a.782.782,0,0,0,0,1.565Zm0,0" transform="translate(-370.536 -130.476)" fill="#969696"/>
    <path id="Path_213" data-name="Path 213" d="M39.83,112.4l-1.756-1.756a1.343,1.343,0,0,0-1.9,0L34.917,111.9l-1.261-1.261a1.345,1.345,0,0,0-1.9,0L30.5,111.893l-1.324-1.324a1.345,1.345,0,0,0-1.9,0l-1.13,1.13-1.712-2.9.917-.617,0,0,.108-.073a4.2,4.2,0,0,0,.625-6.455l-3.23-3.23a4.225,4.225,0,0,0-5.475-.4L15.3,99.572a.4.4,0,0,1-.522-.038l-3.691-3.691a.4.4,0,0,1-.039-.522L12.6,93.23a4.225,4.225,0,0,0-.4-5.474l-3.23-3.231a4.2,4.2,0,0,0-6.455.625l-.095.141,0,0L1.239,87.038a7.3,7.3,0,0,0,.893,9.223l3.9,3.9a.783.783,0,1,0,1.107-1.107l-3.9-3.9a5.734,5.734,0,0,1-.7-7.242l.648-.963,6.959,6.959-.356.48a1.977,1.977,0,0,0,.188,2.561l3.691,3.691a1.976,1.976,0,0,0,2.561.188l.512-.38,6.96,6.96-1,.671a5.734,5.734,0,0,1-7.242-.7l-3.9-3.9a.783.783,0,1,0-1.107,1.107l3.9,3.9a7.3,7.3,0,0,0,8.772,1.172l1.82,3.084a1.343,1.343,0,0,0,2.106.267l1.175-1.176,1.324,1.324a1.345,1.345,0,0,0,1.9,0l1.252-1.252,1.261,1.261a1.345,1.345,0,0,0,1.9,0l1.259-1.259,1.6,1.6A.782.782,0,0,0,39.83,112.4ZM4.106,85.656a2.635,2.635,0,0,1,3.752-.025l3.23,3.231A2.651,2.651,0,0,1,11.34,92.3l-.253.341ZM18.32,99.276a2.65,2.65,0,0,1,3.435.252l3.23,3.23a2.635,2.635,0,0,1,0,3.724l-6.977-6.977Zm0,0" transform="translate(0 -76.316)" fill="#969696"/>
    <path id="Path_214" data-name="Path 214" d="M103.212,310.063a.783.783,0,1,0,.553.229A.787.787,0,0,0,103.212,310.063Zm0,0" transform="translate(-94.415 -285.342)" fill="#969696"/>
  </g>
</svg>
