<svg xmlns="http://www.w3.org/2000/svg" width="45.026" height="44.276" viewBox="0 0 45.026 44.276">
  <g id="hotel" transform="translate(0 -4)">
    <g id="Group_998" data-name="Group 998" transform="translate(0 4)">
      <g id="Group_997" data-name="Group 997" transform="translate(0 0)">
        <path id="Path_3750" data-name="Path 3750" d="M44.276,10.754H36.021v-6A.75.75,0,0,0,35.27,4H9.756a.75.75,0,0,0-.75.75V15.257H.75a.75.75,0,0,0-.75.75V46.775a.75.75,0,1,0,1.5,0V16.757h7.5V47.525a.75.75,0,0,0,.75.75H35.27a.75.75,0,0,0,.75-.75V12.255h7.5v34.52a.75.75,0,1,0,1.5,0V11.5A.75.75,0,0,0,44.276,10.754ZM21.763,46.775h-3V40.021h3Zm4.5,0h-3V40.021h3Zm8.255,0H27.766v-7.5a.75.75,0,0,0-.75-.75H18.01a.75.75,0,0,0-.75.75v7.5H10.506V5.5H34.52Z" transform="translate(0 -4)"/>
      </g>
    </g>
    <g id="Group_1000" data-name="Group 1000" transform="translate(12.007 7.002)">
      <g id="Group_999" data-name="Group 999">
        <path id="Path_3751" data-name="Path 3751" d="M133.253,36h-4.5a.75.75,0,0,0-.75.75v4.5a.75.75,0,0,0,.75.75h4.5a.75.75,0,0,0,.75-.75v-4.5A.75.75,0,0,0,133.253,36Zm-.75,4.5h-3v-3h3Z" transform="translate(-128 -36)"/>
      </g>
    </g>
    <g id="Group_1002" data-name="Group 1002" transform="translate(19.511 7.002)">
      <g id="Group_1001" data-name="Group 1001">
        <path id="Path_3752" data-name="Path 3752" d="M213.253,36h-4.5a.75.75,0,0,0-.75.75v4.5a.75.75,0,0,0,.75.75h4.5a.75.75,0,0,0,.75-.75v-4.5A.75.75,0,0,0,213.253,36Zm-.75,4.5h-3v-3h3Z" transform="translate(-208 -36)"/>
      </g>
    </g>
    <g id="Group_1004" data-name="Group 1004" transform="translate(27.016 7.002)">
      <g id="Group_1003" data-name="Group 1003">
        <path id="Path_3753" data-name="Path 3753" d="M293.253,36h-4.5a.75.75,0,0,0-.75.75v4.5a.75.75,0,0,0,.75.75h4.5a.75.75,0,0,0,.75-.75v-4.5A.75.75,0,0,0,293.253,36Zm-.75,4.5h-3v-3h3Z" transform="translate(-288 -36)"/>
      </g>
    </g>
    <g id="Group_1006" data-name="Group 1006" transform="translate(12.007 14.506)">
      <g id="Group_1005" data-name="Group 1005">
        <path id="Path_3754" data-name="Path 3754" d="M133.253,116h-4.5a.75.75,0,0,0-.75.75v4.5a.75.75,0,0,0,.75.75h4.5a.75.75,0,0,0,.75-.75v-4.5A.75.75,0,0,0,133.253,116Zm-.75,4.5h-3v-3h3Z" transform="translate(-128 -116)"/>
      </g>
    </g>
    <g id="Group_1008" data-name="Group 1008" transform="translate(19.511 14.506)">
      <g id="Group_1007" data-name="Group 1007">
        <path id="Path_3755" data-name="Path 3755" d="M213.253,116h-4.5a.75.75,0,0,0-.75.75v4.5a.75.75,0,0,0,.75.75h4.5a.75.75,0,0,0,.75-.75v-4.5A.75.75,0,0,0,213.253,116Zm-.75,4.5h-3v-3h3Z" transform="translate(-208 -116)"/>
      </g>
    </g>
    <g id="Group_1010" data-name="Group 1010" transform="translate(27.016 14.506)">
      <g id="Group_1009" data-name="Group 1009">
        <path id="Path_3756" data-name="Path 3756" d="M293.253,116h-4.5a.75.75,0,0,0-.75.75v4.5a.75.75,0,0,0,.75.75h4.5a.75.75,0,0,0,.75-.75v-4.5A.75.75,0,0,0,293.253,116Zm-.75,4.5h-3v-3h3Z" transform="translate(-288 -116)"/>
      </g>
    </g>
    <g id="Group_1012" data-name="Group 1012" transform="translate(12.007 22.01)">
      <g id="Group_1011" data-name="Group 1011">
        <path id="Path_3757" data-name="Path 3757" d="M133.253,196h-4.5a.75.75,0,0,0-.75.75v4.5a.75.75,0,0,0,.75.75h4.5a.75.75,0,0,0,.75-.75v-4.5A.75.75,0,0,0,133.253,196Zm-.75,4.5h-3v-3h3Z" transform="translate(-128 -196)"/>
      </g>
    </g>
    <g id="Group_1014" data-name="Group 1014" transform="translate(19.511 22.01)">
      <g id="Group_1013" data-name="Group 1013">
        <path id="Path_3758" data-name="Path 3758" d="M213.253,196h-4.5a.75.75,0,0,0-.75.75v4.5a.75.75,0,0,0,.75.75h4.5a.75.75,0,0,0,.75-.75v-4.5A.75.75,0,0,0,213.253,196Zm-.75,4.5h-3v-3h3Z" transform="translate(-208 -196)"/>
      </g>
    </g>
    <g id="Group_1016" data-name="Group 1016" transform="translate(27.016 22.01)">
      <g id="Group_1015" data-name="Group 1015">
        <path id="Path_3759" data-name="Path 3759" d="M293.253,196h-4.5a.75.75,0,0,0-.75.75v4.5a.75.75,0,0,0,.75.75h4.5a.75.75,0,0,0,.75-.75v-4.5A.75.75,0,0,0,293.253,196Zm-.75,4.5h-3v-3h3Z" transform="translate(-288 -196)"/>
      </g>
    </g>
    <g id="Group_1018" data-name="Group 1018" transform="translate(12.007 29.515)">
      <g id="Group_1017" data-name="Group 1017">
        <path id="Path_3760" data-name="Path 3760" d="M133.253,276h-4.5a.75.75,0,0,0-.75.75v4.5a.75.75,0,0,0,.75.75h4.5a.75.75,0,0,0,.75-.75v-4.5A.75.75,0,0,0,133.253,276Zm-.75,4.5h-3v-3h3Z" transform="translate(-128 -276)"/>
      </g>
    </g>
    <g id="Group_1020" data-name="Group 1020" transform="translate(19.511 29.515)">
      <g id="Group_1019" data-name="Group 1019">
        <path id="Path_3761" data-name="Path 3761" d="M213.253,276h-4.5a.75.75,0,0,0-.75.75v4.5a.75.75,0,0,0,.75.75h4.5a.75.75,0,0,0,.75-.75v-4.5A.75.75,0,0,0,213.253,276Zm-.75,4.5h-3v-3h3Z" transform="translate(-208 -276)"/>
      </g>
    </g>
    <g id="Group_1022" data-name="Group 1022" transform="translate(27.016 29.515)">
      <g id="Group_1021" data-name="Group 1021">
        <path id="Path_3762" data-name="Path 3762" d="M293.253,276h-4.5a.75.75,0,0,0-.75.75v4.5a.75.75,0,0,0,.75.75h4.5a.75.75,0,0,0,.75-.75v-4.5A.75.75,0,0,0,293.253,276Zm-.75,4.5h-3v-3h3Z" transform="translate(-288 -276)"/>
      </g>
    </g>
    <g id="Group_1024" data-name="Group 1024" transform="translate(3.002 18.258)">
      <g id="Group_1023" data-name="Group 1023">
        <path id="Path_3763" data-name="Path 3763" d="M33.5,156h-.75a.75.75,0,0,0-.75.75v.75a.75.75,0,0,0,.75.75h.75a.75.75,0,0,0,.75-.75v-.75A.75.75,0,0,0,33.5,156Z" transform="translate(-32 -156)"/>
      </g>
    </g>
    <g id="Group_1026" data-name="Group 1026" transform="translate(6.003 18.258)">
      <g id="Group_1025" data-name="Group 1025">
        <path id="Path_3764" data-name="Path 3764" d="M65.5,156h-.75a.75.75,0,0,0-.75.75v.75a.75.75,0,0,0,.75.75h.75a.75.75,0,0,0,.75-.75v-.75A.75.75,0,0,0,65.5,156Z" transform="translate(-64 -156)"/>
      </g>
    </g>
    <g id="Group_1028" data-name="Group 1028" transform="translate(3.002 21.26)">
      <g id="Group_1027" data-name="Group 1027">
        <path id="Path_3765" data-name="Path 3765" d="M33.5,188h-.75a.75.75,0,0,0-.75.75v.75a.75.75,0,0,0,.75.75h.75a.75.75,0,0,0,.75-.75v-.75A.75.75,0,0,0,33.5,188Z" transform="translate(-32 -188)"/>
      </g>
    </g>
    <g id="Group_1030" data-name="Group 1030" transform="translate(6.003 21.26)">
      <g id="Group_1029" data-name="Group 1029">
        <path id="Path_3766" data-name="Path 3766" d="M65.5,188h-.75a.75.75,0,0,0-.75.75v.75a.75.75,0,0,0,.75.75h.75a.75.75,0,0,0,.75-.75v-.75A.75.75,0,0,0,65.5,188Z" transform="translate(-64 -188)"/>
      </g>
    </g>
    <g id="Group_1032" data-name="Group 1032" transform="translate(3.002 24.262)">
      <g id="Group_1031" data-name="Group 1031">
        <path id="Path_3767" data-name="Path 3767" d="M33.5,220h-.75a.75.75,0,0,0-.75.75v.75a.75.75,0,0,0,.75.75h.75a.75.75,0,0,0,.75-.75v-.75A.75.75,0,0,0,33.5,220Z" transform="translate(-32 -220)"/>
      </g>
    </g>
    <g id="Group_1034" data-name="Group 1034" transform="translate(6.003 24.262)">
      <g id="Group_1033" data-name="Group 1033">
        <path id="Path_3768" data-name="Path 3768" d="M65.5,220h-.75a.75.75,0,0,0-.75.75v.75a.75.75,0,0,0,.75.75h.75a.75.75,0,0,0,.75-.75v-.75A.75.75,0,0,0,65.5,220Z" transform="translate(-64 -220)"/>
      </g>
    </g>
    <g id="Group_1036" data-name="Group 1036" transform="translate(3.002 27.263)">
      <g id="Group_1035" data-name="Group 1035">
        <path id="Path_3769" data-name="Path 3769" d="M33.5,252h-.75a.75.75,0,0,0-.75.75v.75a.75.75,0,0,0,.75.75h.75a.75.75,0,0,0,.75-.75v-.75A.75.75,0,0,0,33.5,252Z" transform="translate(-32 -252)"/>
      </g>
    </g>
    <g id="Group_1038" data-name="Group 1038" transform="translate(6.003 27.263)">
      <g id="Group_1037" data-name="Group 1037">
        <path id="Path_3770" data-name="Path 3770" d="M65.5,252h-.75a.75.75,0,0,0-.75.75v.75a.75.75,0,0,0,.75.75h.75a.75.75,0,0,0,.75-.75v-.75A.75.75,0,0,0,65.5,252Z" transform="translate(-64 -252)"/>
      </g>
    </g>
    <g id="Group_1040" data-name="Group 1040" transform="translate(3.002 30.265)">
      <g id="Group_1039" data-name="Group 1039">
        <path id="Path_3771" data-name="Path 3771" d="M33.5,284h-.75a.75.75,0,0,0-.75.75v.75a.75.75,0,0,0,.75.75h.75a.75.75,0,0,0,.75-.75v-.75A.75.75,0,0,0,33.5,284Z" transform="translate(-32 -284)"/>
      </g>
    </g>
    <g id="Group_1042" data-name="Group 1042" transform="translate(6.003 30.265)">
      <g id="Group_1041" data-name="Group 1041">
        <path id="Path_3772" data-name="Path 3772" d="M65.5,284h-.75a.75.75,0,0,0-.75.75v.75a.75.75,0,0,0,.75.75h.75a.75.75,0,0,0,.75-.75v-.75A.75.75,0,0,0,65.5,284Z" transform="translate(-64 -284)"/>
      </g>
    </g>
    <g id="Group_1044" data-name="Group 1044" transform="translate(3.002 33.267)">
      <g id="Group_1043" data-name="Group 1043">
        <path id="Path_3773" data-name="Path 3773" d="M33.5,316h-.75a.75.75,0,0,0-.75.75v.75a.75.75,0,0,0,.75.75h.75a.75.75,0,0,0,.75-.75v-.75A.75.75,0,0,0,33.5,316Z" transform="translate(-32 -316)"/>
      </g>
    </g>
    <g id="Group_1046" data-name="Group 1046" transform="translate(6.003 33.267)">
      <g id="Group_1045" data-name="Group 1045">
        <path id="Path_3774" data-name="Path 3774" d="M65.5,316h-.75a.75.75,0,0,0-.75.75v.75a.75.75,0,0,0,.75.75h.75a.75.75,0,0,0,.75-.75v-.75A.75.75,0,0,0,65.5,316Z" transform="translate(-64 -316)"/>
      </g>
    </g>
    <g id="Group_1048" data-name="Group 1048" transform="translate(3.002 36.269)">
      <g id="Group_1047" data-name="Group 1047">
        <path id="Path_3775" data-name="Path 3775" d="M33.5,348h-.75a.75.75,0,0,0-.75.75v.75a.75.75,0,0,0,.75.75h.75a.75.75,0,0,0,.75-.75v-.75A.75.75,0,0,0,33.5,348Z" transform="translate(-32 -348)"/>
      </g>
    </g>
    <g id="Group_1050" data-name="Group 1050" transform="translate(6.003 36.269)">
      <g id="Group_1049" data-name="Group 1049">
        <path id="Path_3776" data-name="Path 3776" d="M65.5,348h-.75a.75.75,0,0,0-.75.75v.75a.75.75,0,0,0,.75.75h.75a.75.75,0,0,0,.75-.75v-.75A.75.75,0,0,0,65.5,348Z" transform="translate(-64 -348)"/>
      </g>
    </g>
    <g id="Group_1052" data-name="Group 1052" transform="translate(3.002 39.27)">
      <g id="Group_1051" data-name="Group 1051">
        <path id="Path_3777" data-name="Path 3777" d="M33.5,380h-.75a.75.75,0,0,0-.75.75v.75a.75.75,0,0,0,.75.75h.75a.75.75,0,0,0,.75-.75v-.75A.75.75,0,0,0,33.5,380Z" transform="translate(-32 -380)"/>
      </g>
    </g>
    <g id="Group_1054" data-name="Group 1054" transform="translate(6.003 39.27)">
      <g id="Group_1053" data-name="Group 1053">
        <path id="Path_3778" data-name="Path 3778" d="M65.5,380h-.75a.75.75,0,0,0-.75.75v.75a.75.75,0,0,0,.75.75h.75a.75.75,0,0,0,.75-.75v-.75A.75.75,0,0,0,65.5,380Z" transform="translate(-64 -380)"/>
      </g>
    </g>
    <g id="Group_1056" data-name="Group 1056" transform="translate(3.002 42.272)">
      <g id="Group_1055" data-name="Group 1055">
        <path id="Path_3779" data-name="Path 3779" d="M33.5,412h-.75a.75.75,0,0,0-.75.75v.75a.75.75,0,0,0,.75.75h.75a.75.75,0,0,0,.75-.75v-.75A.75.75,0,0,0,33.5,412Z" transform="translate(-32 -412)"/>
      </g>
    </g>
    <g id="Group_1058" data-name="Group 1058" transform="translate(6.003 42.272)">
      <g id="Group_1057" data-name="Group 1057">
        <path id="Path_3780" data-name="Path 3780" d="M65.5,412h-.75a.75.75,0,0,0-.75.75v.75a.75.75,0,0,0,.75.75h.75a.75.75,0,0,0,.75-.75v-.75A.75.75,0,0,0,65.5,412Z" transform="translate(-64 -412)"/>
      </g>
    </g>
    <g id="Group_1060" data-name="Group 1060" transform="translate(37.522 13.756)">
      <g id="Group_1059" data-name="Group 1059">
        <path id="Path_3781" data-name="Path 3781" d="M403.752,108h-3a.75.75,0,0,0-.75.75v3a.75.75,0,0,0,.75.75h3a.75.75,0,0,0,.75-.75v-3A.75.75,0,0,0,403.752,108Zm-.75,3h-1.5v-1.5H403Z" transform="translate(-400 -108)"/>
      </g>
    </g>
    <g id="Group_1062" data-name="Group 1062" transform="translate(37.522 19.759)">
      <g id="Group_1061" data-name="Group 1061">
        <path id="Path_3782" data-name="Path 3782" d="M403.752,172h-3a.75.75,0,0,0-.75.75v3a.75.75,0,0,0,.75.75h3a.75.75,0,0,0,.75-.75v-3A.75.75,0,0,0,403.752,172Zm-.75,3h-1.5v-1.5H403Z" transform="translate(-400 -172)"/>
      </g>
    </g>
    <g id="Group_1064" data-name="Group 1064" transform="translate(37.522 25.763)">
      <g id="Group_1063" data-name="Group 1063">
        <path id="Path_3783" data-name="Path 3783" d="M403.752,236h-3a.75.75,0,0,0-.75.75v3a.75.75,0,0,0,.75.75h3a.75.75,0,0,0,.75-.75v-3A.75.75,0,0,0,403.752,236Zm-.75,3h-1.5v-1.5H403Z" transform="translate(-400 -236)"/>
      </g>
    </g>
    <g id="Group_1066" data-name="Group 1066" transform="translate(37.522 31.766)">
      <g id="Group_1065" data-name="Group 1065">
        <path id="Path_3784" data-name="Path 3784" d="M403.752,300h-3a.75.75,0,0,0-.75.75v3a.75.75,0,0,0,.75.75h3a.75.75,0,0,0,.75-.75v-3A.75.75,0,0,0,403.752,300Zm-.75,3h-1.5v-1.5H403Z" transform="translate(-400 -300)"/>
      </g>
    </g>
    <g id="Group_1068" data-name="Group 1068" transform="translate(37.522 37.77)">
      <g id="Group_1067" data-name="Group 1067">
        <path id="Path_3785" data-name="Path 3785" d="M403.752,364h-3a.75.75,0,0,0-.75.75v3a.75.75,0,0,0,.75.75h3a.75.75,0,0,0,.75-.75v-3A.75.75,0,0,0,403.752,364Zm-.75,3h-1.5v-1.5H403Z" transform="translate(-400 -364)"/>
      </g>
    </g>
  </g>
</svg>
