<svg xmlns="http://www.w3.org/2000/svg" width="38.803" height="38.807" viewBox="0 0 38.803 38.807">
  <g id="meeting-point" transform="translate(-0.027)">
    <g id="Group_53" data-name="Group 53" transform="translate(8.269)">
      <g id="Group_52" data-name="Group 52">
        <path id="Path_255" data-name="Path 255" d="M119.917,0a11.15,11.15,0,0,0-8.658,18.177q.018.028.039.054l8.021,10.277a.758.758,0,0,0,1.195,0l8.06-10.331.008-.011A11.15,11.15,0,0,0,119.917,0Zm7.472,17.232-.028.036-7.444,9.542-7.369-9.441a.761.761,0,0,0-.062-.086,9.634,9.634,0,1,1,14.9-.05Z" transform="translate(-108.767)" fill="#969696"/>
      </g>
    </g>
    <g id="Group_55" data-name="Group 55" transform="translate(12.598 4.494)">
      <g id="Group_54" data-name="Group 54">
        <path id="Path_256" data-name="Path 256" d="M179.246,64.18a.758.758,0,0,0-1.454.429,5.3,5.3,0,1,1-3.577-3.58.758.758,0,0,0,.43-1.453,6.821,6.821,0,1,0,4.6,4.6Z" transform="translate(-165.884 -59.293)" fill="#969696"/>
      </g>
    </g>
    <g id="Group_57" data-name="Group 57" transform="translate(22.948 6.271)">
      <g id="Group_56" data-name="Group 56">
        <path id="Path_257" data-name="Path 257" d="M303.743,82.966l-.013-.013a.758.758,0,0,0-1.072,1.072l.013.013a.758.758,0,1,0,1.072-1.072Z" transform="translate(-302.436 -82.73)" fill="#969696"/>
      </g>
    </g>
    <g id="Group_59" data-name="Group 59" transform="translate(0.027 21.692)">
      <g id="Group_58" data-name="Group 58">
        <path id="Path_258" data-name="Path 258" d="M31.071,287.637a.758.758,0,1,0-.474,1.44c4.206,1.384,6.717,3.458,6.717,5.547,0,1.767-1.822,3.554-5,4.9a34.008,34.008,0,0,1-12.887,2.26,34.008,34.008,0,0,1-12.887-2.26c-3.177-1.35-5-3.137-5-4.9,0-1.48,1.276-2.982,3.593-4.232A27.537,27.537,0,0,1,14.9,287.7a.758.758,0,0,0-.163-1.507,29.057,29.057,0,0,0-10.319,2.865c-2.872,1.549-4.39,3.473-4.39,5.566,0,2.439,2.1,4.676,5.922,6.3A35.537,35.537,0,0,0,19.428,303.3a35.536,35.536,0,0,0,13.479-2.381c3.819-1.623,5.922-3.86,5.922-6.3C38.83,291.807,36,289.26,31.071,287.637Z" transform="translate(-0.027 -286.188)" fill="#969696"/>
      </g>
    </g>
    <g id="Group_61" data-name="Group 61" transform="translate(26.669 22.212)">
      <g id="Group_60" data-name="Group 60">
        <path id="Path_259" data-name="Path 259" d="M352.465,293.068l-.026-.005a.758.758,0,1,0-.3,1.486l.026.005a.758.758,0,1,0,.3-1.486Z" transform="translate(-351.531 -293.048)" fill="#969696"/>
      </g>
    </g>
    <g id="Group_63" data-name="Group 63" transform="translate(12.196 24.935)">
      <g id="Group_62" data-name="Group 62">
        <path id="Path_260" data-name="Path 260" d="M162.08,329.591a.758.758,0,0,0-.892-.595l-.052.012a.758.758,0,1,0,.944.582Z" transform="translate(-160.577 -328.982)" fill="#969696"/>
      </g>
    </g>
    <g id="Group_65" data-name="Group 65" transform="translate(7.918 24.309)">
      <g id="Group_64" data-name="Group 64">
        <path id="Path_261" data-name="Path 261" d="M118.182,320.718a.758.758,0,0,0-.118,1.511c4.948.387,7.584,1.835,7.584,2.73,0,.432-.689,1.166-2.631,1.813a27.345,27.345,0,0,1-14.727,0c-1.942-.647-2.631-1.381-2.631-1.813,0-.395.536-.893,1.433-1.332a.758.758,0,1,0-.666-1.361c-1.886.923-2.282,1.974-2.282,2.693,0,2.848,5.79,4.339,11.51,4.339s11.51-1.49,11.51-4.339C127.163,322.348,122.325,321.042,118.182,320.718Z" transform="translate(-104.143 -320.716)" fill="#969696"/>
      </g>
    </g>
  </g>
</svg>
