<svg xmlns="http://www.w3.org/2000/svg" width="48.073" height="47.276" viewBox="0 0 48.073 47.276">
  <g id="location" transform="translate(0 -5.246)">
    <g id="Group_1070" data-name="Group 1070" transform="translate(0 5.246)">
      <g id="Group_1069" data-name="Group 1069" transform="translate(0 0)">
        <path id="Path_3786" data-name="Path 3786" d="M93.1,37.754c1.98,2.791,3.956,5.288,5.266,6.9.191.234.369.451.542.66H94.954a.8.8,0,1,0,0,1.6h12.819a.8.8,0,0,0,0-1.6H103.82c.173-.209.352-.426.543-.66,1.309-1.6,3.285-4.1,5.266-6.9a70.4,70.4,0,0,0,5.293-8.531c1.636-3.213,2.466-5.88,2.466-7.928A16.013,16.013,0,0,0,112.7,9.949a.8.8,0,1,0-1.134,1.132A14.417,14.417,0,0,1,115.786,21.3c0,1.793-.771,4.216-2.291,7.2a68.805,68.805,0,0,1-5.173,8.333c-1.953,2.755-3.906,5.224-5.2,6.81-.43.527-.817.993-1.147,1.388a.812.812,0,0,1-1.221,0c-.33-.394-.717-.861-1.147-1.388-1.294-1.586-3.247-4.054-5.2-6.81A68.806,68.806,0,0,1,89.234,28.5c-1.522-2.985-2.291-5.407-2.291-7.2A14.426,14.426,0,0,1,106.981,7.986a.8.8,0,0,0,.626-1.476A16.03,16.03,0,0,0,85.34,21.3c0,2.048.83,4.715,2.466,7.932A70.348,70.348,0,0,0,93.1,37.754Z" transform="translate(-77.327 -5.246)"/>
        <path id="Path_3787" data-name="Path 3787" d="M178.673,83.687a.8.8,0,0,0,0-1.6,8.012,8.012,0,1,0,5.665,2.347.8.8,0,1,0-1.133,1.133,6.41,6.41,0,1,1-4.532-1.877Z" transform="translate(-154.636 -74.87)"/>
        <path id="Path_3788" data-name="Path 3788" d="M47.771,373.756l-4.927-8.813a2.49,2.49,0,0,0-2.18-1.259h-5.71a.8.8,0,1,0,0,1.6h5.71a.889.889,0,0,1,.783.437l4.926,8.813a.721.721,0,0,1-.007.74.881.881,0,0,1-.776.425H2.484a.881.881,0,0,1-.775-.425.721.721,0,0,1-.007-.74l4.926-8.813a.888.888,0,0,1,.782-.437h5.71a.8.8,0,1,0,0-1.6H7.41a2.492,2.492,0,0,0-2.182,1.259L.3,373.756a2.324,2.324,0,0,0,.025,2.332A2.468,2.468,0,0,0,2.484,377.3H45.59a2.468,2.468,0,0,0,2.157-1.216A2.323,2.323,0,0,0,47.771,373.756Z" transform="translate(0 -330.029)"/>
        <path id="Path_3789" data-name="Path 3789" d="M356.279,406.351h-3.2a.806.806,0,0,0-.445.135l-2.4,1.6a.8.8,0,0,0,.889,1.333l2.2-1.468h2.964a.8.8,0,0,0,0-1.6Z" transform="translate(-317.019 -368.69)"/>
        <path id="Path_3790" data-name="Path 3790" d="M366.937,458.352a.8.8,0,0,0,.8.8h6.41a.8.8,0,1,0,0-1.6h-6.41A.8.8,0,0,0,366.937,458.352Z" transform="translate(-332.484 -415.083)"/>
        <path id="Path_3791" data-name="Path 3791" d="M91.747,409.555a.8.8,0,0,0,.446-1.468l-2.4-1.6a.807.807,0,0,0-.446-.135h-3.2a.8.8,0,1,0,0,1.6H89.1l2.2,1.468A.8.8,0,0,0,91.747,409.555Z" transform="translate(-77.325 -368.689)"/>
        <path id="Path_3792" data-name="Path 3792" d="M60.538,457.551a.8.8,0,0,0,0,1.6h6.41a.8.8,0,0,0,0-1.6Z" transform="translate(-54.128 -415.083)"/>
      </g>
    </g>
  </g>
</svg>
