<svg id="registration" xmlns="http://www.w3.org/2000/svg" width="39.059" height="39.059" viewBox="0 0 39.059 39.059">
  <g id="Group_13" data-name="Group 13">
    <g id="Group_12" data-name="Group 12">
      <path id="Path_185" data-name="Path 185" d="M39.059,29.294V11.067A3.259,3.259,0,0,0,35.8,7.812H28.643V0h-1.3V14.973a.651.651,0,0,0,.651.651H30.2l-10.67,6.4-10.67-6.4h2.207a.651.651,0,0,0,.651-.651V0h-1.3V7.812H3.255A3.259,3.259,0,0,0,0,11.067V29.294a3.259,3.259,0,0,0,3.255,3.255H13.919l-1.3,2.6H.651A.651.651,0,0,0,0,35.8c0,3.255,3.43,3.255,4.557,3.255H34.5c1.127,0,4.557,0,4.557-3.255a.651.651,0,0,0-.651-.651H26.442l-1.3-2.6H35.8A3.259,3.259,0,0,0,39.059,29.294ZM10.416,14.322H6.51a.651.651,0,0,0-.335,1.209l13.02,7.812a.651.651,0,0,0,.671,0l13.02-7.812a.651.651,0,0,0-.335-1.209H28.643v-2.6h6.51V27.341H3.906V11.718h6.51ZM37.678,36.455c-.227.8-1.013,1.3-3.176,1.3H4.557c-2.163,0-2.949-.5-3.176-1.3Zm-23.605-1.3,1.3-2.6h8.309l1.3,2.6ZM3.255,31.247A1.953,1.953,0,0,1,1.3,29.294V11.067A1.953,1.953,0,0,1,3.255,9.114h7.161v1.3H3.255a.651.651,0,0,0-.651.651V27.992a.651.651,0,0,0,.651.651H35.8a.651.651,0,0,0,.651-.651V11.067a.651.651,0,0,0-.651-.651H28.643v-1.3H35.8a1.953,1.953,0,0,1,1.953,1.953V29.294A1.953,1.953,0,0,1,35.8,31.247Z" fill="#969696"/>
    </g>
  </g>
  <g id="Group_15" data-name="Group 15" transform="translate(13.671 1.302)">
    <g id="Group_14" data-name="Group 14">
      <path id="Path_186" data-name="Path 186" d="M176.7,24.493a4.519,4.519,0,0,0,1.717-3.285c0-4.3-2.478-5.208-4.557-5.208s-4.557.9-4.557,5.208a4.518,4.518,0,0,0,1.717,3.287A3.439,3.439,0,0,0,168,27.913v2.409h1.3V27.913a2.148,2.148,0,0,1,2.148-2.148h4.817a2.148,2.148,0,0,1,2.148,2.148v2.409h1.3V27.913A3.439,3.439,0,0,0,176.7,24.493Zm-6.061-3.974c.176-2.181,1.2-3.216,3.221-3.216a2.845,2.845,0,0,1,3.155,2.7l-2.169-1.3a.651.651,0,0,0-.952.352C173.563,20.037,171.785,20.41,170.638,20.518Zm3.221,3.944a4.1,4.1,0,0,1-3.164-2.638v0c1.114-.092,3.125-.429,4.062-1.663l2.327,1.4A4.029,4.029,0,0,1,173.859,24.463Z" transform="translate(-168 -16)" fill="#969696"/>
    </g>
  </g>
  <g id="Group_17" data-name="Group 17" transform="translate(29.945 22.133)">
    <g id="Group_16" data-name="Group 16">
      <path id="Path_187" data-name="Path 187" d="M370.6,273.3V272h-1.3v1.3H368v1.3h1.3v1.3h1.3v-1.3h1.3v-1.3Z" transform="translate(-368 -272)" fill="#969696"/>
    </g>
  </g>
</svg>
